<svg width="52" height="52" viewBox="0 0 52 52" fill="none" xmlns="http://www.w3.org/2000/svg">
<path fill-rule="evenodd" clip-rule="evenodd" d="M43.5459 46.804C44.9807 46.804 46.1438 45.6408 46.1438 44.206C46.1438 42.7712 44.9807 41.608 43.5459 41.608C42.111 41.608 40.9479 42.7712 40.9479 44.206C40.9479 45.6408 42.111 46.804 43.5459 46.804ZM43.5459 51.9999C47.8503 51.9999 51.3398 48.5105 51.3398 44.206C51.3398 39.9016 47.8503 36.4121 43.5459 36.4121C39.2414 36.4121 35.752 39.9016 35.752 44.206C35.752 48.5105 39.2414 51.9999 43.5459 51.9999Z" fill="#000000"/>
<path fill-rule="evenodd" clip-rule="evenodd" d="M34.4528 5.23696C30.8658 5.23696 27.9579 8.14483 27.9579 11.7319V40.3096C27.9579 46.7662 22.7237 52.0004 16.267 52.0004C9.81035 52.0004 4.57617 46.7662 4.57617 40.3096V20.8248C4.57617 19.39 5.73932 18.2268 7.17414 18.2268C8.60896 18.2268 9.77211 19.39 9.77211 20.8248V40.3096C9.77211 43.8966 12.68 46.8045 16.267 46.8045C19.8541 46.8045 22.762 43.8966 22.762 40.3096V11.7319C22.762 5.27519 27.9961 0.0410156 34.4528 0.0410156C40.9095 0.0410156 46.1437 5.27519 46.1437 11.7319V28.6187C46.1437 30.0535 44.9805 31.2167 43.5457 31.2167C42.1109 31.2167 40.9478 30.0535 40.9478 28.6187V11.7319C40.9478 8.14483 38.0399 5.23696 34.4528 5.23696Z" fill="#000000"/>
<path d="M4.92755 1.28893C5.93005 -0.429644 8.41319 -0.429641 9.41569 1.28893L13.9854 9.12276C14.9957 10.8547 13.7464 13.0298 11.7414 13.0298H2.60188C0.596793 13.0298 -0.652495 10.8547 0.357811 9.12276L4.92755 1.28893Z" fill="#000000"/>
</svg>
