<svg width="19" height="18" viewBox="0 0 19 18" fill="none" xmlns="http://www.w3.org/2000/svg">
<path fill-rule="evenodd" clip-rule="evenodd" d="M13.6853 5.83333H5.31131C4.47012 5.83333 3.80335 6.54308 3.85582 7.38264L4.2204 13.216C4.26844 13.9846 4.90581 14.5833 5.6759 14.5833H13.3208C14.0909 14.5833 14.7282 13.9846 14.7763 13.216L15.1408 7.38264C15.1933 6.54308 14.5265 5.83333 13.6853 5.83333ZM5.31131 4.375C3.62892 4.375 2.29538 5.79448 2.40033 7.4736L2.76491 13.3069C2.86098 14.8441 4.13571 16.0417 5.6759 16.0417H13.3208C14.861 16.0417 16.1357 14.8441 16.2318 13.3069L16.5963 7.4736C16.7013 5.79448 15.3677 4.375 13.6853 4.375H5.31131Z" fill="white"/>
<path fill-rule="evenodd" clip-rule="evenodd" d="M5.85547 5.10482C5.85547 3.09128 7.48776 1.45898 9.5013 1.45898C11.5148 1.45898 13.1471 3.09128 13.1471 5.10482V6.56315C13.1471 6.96586 12.8207 7.29232 12.418 7.29232C12.0153 7.29232 11.6888 6.96586 11.6888 6.56315V5.10482C11.6888 3.89669 10.7094 2.91732 9.5013 2.91732C8.29318 2.91732 7.3138 3.89669 7.3138 5.10482V6.56315C7.3138 6.96586 6.98734 7.29232 6.58464 7.29232C6.18193 7.29232 5.85547 6.96586 5.85547 6.56315V5.10482Z" fill="white"/>
</svg>
