<svg width="52" height="52" viewBox="0 0 52 52" fill="none" xmlns="http://www.w3.org/2000/svg">
<path fill-rule="evenodd" clip-rule="evenodd" d="M0 10.4C0 4.65624 4.65624 0 10.4 0H41.6C47.3438 0 52 4.65624 52 10.4V41.6C52 47.3438 47.3438 52 41.6 52H10.4C4.65624 52 0 47.3438 0 41.6V10.4ZM10.4 5.2H41.6C44.4719 5.2 46.8 7.52812 46.8 10.4V23.4H5.2V10.4C5.2 7.52812 7.52812 5.2 10.4 5.2ZM5.2 28.6V41.6C5.2 44.4719 7.52812 46.8 10.4 46.8H41.6C44.4719 46.8 46.8 44.4719 46.8 41.6V28.6H5.2Z" fill="#000000"/>
<path d="M20.7992 10.4004C19.3633 10.4004 18.1992 11.5645 18.1992 13.0004C18.1992 14.4363 19.3633 15.6004 20.7992 15.6004H31.1992C32.6352 15.6004 33.7992 14.4363 33.7992 13.0004C33.7992 11.5645 32.6352 10.4004 31.1992 10.4004H20.7992Z" fill="#000000"/>
<path d="M20.7992 33.8004C19.3633 33.8004 18.1992 34.9645 18.1992 36.4004C18.1992 37.8363 19.3633 39.0004 20.7992 39.0004H31.1992C32.6352 39.0004 33.7992 37.8363 33.7992 36.4004C33.7992 34.9645 32.6352 33.8004 31.1992 33.8004H20.7992Z" fill="#000000"/>
</svg>
