<svg width="53" height="52" viewBox="0 0 53 52" fill="none" xmlns="http://www.w3.org/2000/svg">
<path fill-rule="evenodd" clip-rule="evenodd" d="M18.1986 23.4747C18.2528 24.9096 17.1335 26.1168 15.6985 26.171C12.4635 26.2931 10.1024 26.4646 8.40958 26.6333C6.74243 26.7993 5.73935 27.8058 5.56785 29.2087C5.36563 30.863 5.20013 33.1967 5.20013 36.3991C5.20013 39.6016 5.36564 41.9352 5.56787 43.5895C5.73929 44.9917 6.74283 45.9987 8.41037 46.1648C11.5526 46.4778 16.9815 46.7993 26.0007 46.7993C35.0198 46.7993 40.4487 46.4778 43.5909 46.1648C45.2585 45.9987 46.262 44.9917 46.4334 43.5895C46.6357 41.9352 46.8012 39.6016 46.8012 36.3991C46.8012 33.1967 46.6357 30.863 46.4335 29.2087C46.262 27.8058 45.2589 26.7993 43.5917 26.6333C41.8989 26.4646 39.5378 26.2931 36.3028 26.171C34.8679 26.1168 33.7485 24.9096 33.8027 23.4747C33.8569 22.0397 35.0641 20.9204 36.499 20.9745C39.8194 21.0999 42.289 21.2776 44.1072 21.4587C47.9298 21.8395 51.0973 24.5046 51.5952 28.5778C51.8269 30.4738 52.0013 33.0211 52.0013 36.3991C52.0013 39.7771 51.8269 42.3245 51.5951 44.2205C51.0972 48.294 47.9282 50.9586 44.1064 51.3393C40.7413 51.6746 35.1309 51.9995 26.0007 51.9995C16.8705 51.9995 11.2601 51.6746 7.89491 51.3393C4.07314 50.9586 0.904143 48.294 0.406169 44.2205C0.174388 42.3245 0 39.7771 0 36.3991C1.54976e-07 33.0211 0.174377 30.4738 0.406145 28.5778C0.904047 24.5046 4.07157 21.8395 7.89411 21.4587C9.71237 21.2776 12.182 21.0999 15.5023 20.9745C16.9373 20.9204 18.1445 22.0397 18.1986 23.4747Z" fill="#000000"/>
<path fill-rule="evenodd" clip-rule="evenodd" d="M18.7392 13.5388C17.7238 14.5542 16.0775 14.5542 15.0621 13.5388C14.0467 12.5234 14.0467 10.8772 15.0621 9.86177L24.1624 0.761541C25.1777 -0.253848 26.824 -0.253848 27.8394 0.761541L36.9396 9.86177C37.955 10.8772 37.955 12.5234 36.9396 13.5388C35.9242 14.5542 34.278 14.5542 33.2626 13.5388L28.6009 8.87718L28.6009 33.8009C28.6009 35.2368 27.4368 36.4009 26.0009 36.4009C24.5649 36.4009 23.4008 35.2368 23.4008 33.8009L23.4008 8.87718L18.7392 13.5388Z" fill="#000000"/>
</svg>
