<svg width="16" height="16" viewBox="0 0 16 16" fill="none" xmlns="http://www.w3.org/2000/svg">
<path fill-rule="evenodd" clip-rule="evenodd" d="M11.666 9.99935C11.3646 9.99935 10.9386 10.041 10.4952 10.1017C10.2881 10.1301 10.1301 10.2881 10.1017 10.4952C10.041 10.9386 9.99935 11.3646 9.99935 11.666C9.99935 11.9675 10.041 12.3934 10.1017 12.8368C10.1301 13.044 10.2881 13.2019 10.4952 13.2303C10.9386 13.291 11.3646 13.3327 11.666 13.3327C11.9675 13.3327 12.3934 13.291 12.8368 13.2303C13.044 13.2019 13.2019 13.044 13.2303 12.8368C13.291 12.3934 13.3327 11.9675 13.3327 11.666C13.3327 11.3646 13.291 10.9386 13.2303 10.4952C13.2019 10.2881 13.044 10.1301 12.8368 10.1017C12.3934 10.041 11.9675 9.99935 11.666 9.99935ZM10.3143 8.78074C9.51437 8.8903 8.8903 9.51437 8.78074 10.3143C8.71791 10.7731 8.66602 11.2715 8.66602 11.666C8.66602 12.0606 8.71791 12.5589 8.78074 13.0177C8.8903 13.8177 9.51437 14.4417 10.3143 14.5513C10.7731 14.6141 11.2715 14.666 11.666 14.666C12.0606 14.666 12.5589 14.6141 13.0177 14.5513C13.8177 14.4417 14.4417 13.8177 14.5513 13.0177C14.6141 12.5589 14.666 12.0606 14.666 11.666C14.666 11.2715 14.6141 10.7731 14.5513 10.3143C14.4417 9.51437 13.8177 8.8903 13.0177 8.78074C12.5589 8.71791 12.0606 8.66602 11.666 8.66602C11.2715 8.66602 10.7731 8.71791 10.3143 8.78074Z" fill="#12131A"/>
<path fill-rule="evenodd" clip-rule="evenodd" d="M4.33398 9.99935C4.03253 9.99935 3.6066 10.041 3.16319 10.1017C2.95604 10.1301 2.79808 10.2881 2.76971 10.4952C2.70899 10.9386 2.66732 11.3646 2.66732 11.666C2.66732 11.9675 2.70899 12.3934 2.76971 12.8368C2.79808 13.044 2.95604 13.2019 3.16319 13.2303C3.6066 13.291 4.03253 13.3327 4.33398 13.3327C4.63544 13.3327 5.06137 13.291 5.50478 13.2303C5.71193 13.2019 5.86988 13.044 5.89825 12.8368C5.95898 12.3934 6.00065 11.9675 6.00065 11.666C6.00065 11.3646 5.95898 10.9386 5.89825 10.4952C5.86988 10.2881 5.71193 10.1301 5.50478 10.1017C5.06137 10.041 4.63544 9.99935 4.33398 9.99935ZM2.98228 8.78074C2.18234 8.8903 1.55827 9.51437 1.44871 10.3143C1.38588 10.7731 1.33398 11.2715 1.33398 11.666C1.33398 12.0606 1.38588 12.5589 1.44871 13.0177C1.55827 13.8177 2.18234 14.4417 2.98228 14.5513C3.44108 14.6141 3.93943 14.666 4.33398 14.666C4.72854 14.666 5.22689 14.6141 5.68569 14.5513C6.48563 14.4417 7.1097 13.8177 7.21926 13.0177C7.28209 12.5589 7.33398 12.0606 7.33398 11.666C7.33398 11.2715 7.28209 10.7731 7.21926 10.3143C7.1097 9.51437 6.48563 8.8903 5.68569 8.78074C5.22689 8.71791 4.72854 8.66602 4.33398 8.66602C3.93943 8.66602 3.44108 8.71791 2.98228 8.78074Z" fill="#12131A"/>
<path fill-rule="evenodd" clip-rule="evenodd" d="M11.666 2.66732C11.3646 2.66732 10.9386 2.70899 10.4952 2.76971C10.2881 2.79808 10.1301 2.95604 10.1017 3.16319C10.041 3.6066 9.99935 4.03253 9.99935 4.33398C9.99935 4.63544 10.041 5.06137 10.1017 5.50478C10.1301 5.71193 10.2881 5.86988 10.4952 5.89825C10.9386 5.95898 11.3646 6.00065 11.666 6.00065C11.9675 6.00065 12.3934 5.95898 12.8368 5.89825C13.044 5.86988 13.2019 5.71193 13.2303 5.50478C13.291 5.06137 13.3327 4.63544 13.3327 4.33398C13.3327 4.03253 13.291 3.6066 13.2303 3.16319C13.2019 2.95604 13.044 2.79808 12.8368 2.76971C12.3934 2.70899 11.9675 2.66732 11.666 2.66732ZM10.3143 1.44871C9.51437 1.55827 8.8903 2.18234 8.78074 2.98228C8.71791 3.44108 8.66602 3.93943 8.66602 4.33398C8.66602 4.72854 8.71791 5.22689 8.78074 5.68569C8.8903 6.48563 9.51437 7.1097 10.3143 7.21926C10.7731 7.28209 11.2715 7.33398 11.666 7.33398C12.0606 7.33398 12.5589 7.28209 13.0177 7.21926C13.8177 7.1097 14.4417 6.48563 14.5513 5.68569C14.6141 5.22689 14.666 4.72854 14.666 4.33398C14.666 3.93943 14.6141 3.44108 14.5513 2.98228C14.4417 2.18234 13.8177 1.55827 13.0177 1.44871C12.5589 1.38588 12.0606 1.33398 11.666 1.33398C11.2715 1.33398 10.7731 1.38588 10.3143 1.44871Z" fill="#12131A"/>
<path fill-rule="evenodd" clip-rule="evenodd" d="M4.33398 2.66732C4.03253 2.66732 3.6066 2.70899 3.16319 2.76971C2.95604 2.79808 2.79808 2.95604 2.76971 3.16319C2.70899 3.6066 2.66732 4.03253 2.66732 4.33398C2.66732 4.63544 2.70899 5.06137 2.76971 5.50478C2.79808 5.71193 2.95604 5.86988 3.16319 5.89825C3.6066 5.95898 4.03253 6.00065 4.33398 6.00065C4.63544 6.00065 5.06137 5.95898 5.50478 5.89825C5.71193 5.86988 5.86988 5.71193 5.89825 5.50478C5.95898 5.06137 6.00065 4.63544 6.00065 4.33398C6.00065 4.03253 5.95898 3.6066 5.89825 3.16319C5.86988 2.95604 5.71193 2.79808 5.50478 2.76971C5.06137 2.70899 4.63544 2.66732 4.33398 2.66732ZM2.98228 1.44871C2.18234 1.55827 1.55827 2.18234 1.44871 2.98228C1.38588 3.44108 1.33398 3.93943 1.33398 4.33398C1.33398 4.72854 1.38588 5.22689 1.44871 5.68569C1.55827 6.48563 2.18234 7.1097 2.98228 7.21926C3.44108 7.28209 3.93943 7.33398 4.33398 7.33398C4.72854 7.33398 5.22689 7.28209 5.68569 7.21926C6.48563 7.1097 7.1097 6.48563 7.21926 5.68569C7.28209 5.22689 7.33398 4.72854 7.33398 4.33398C7.33398 3.93943 7.28209 3.44108 7.21926 2.98228C7.1097 2.18234 6.48563 1.55827 5.68569 1.44871C5.22689 1.38588 4.72854 1.33398 4.33398 1.33398C3.93943 1.33398 3.44108 1.38588 2.98228 1.44871Z" fill="#12131A"/>
</svg>
