<svg width="52" height="52" viewBox="0 0 52 52" fill="none" xmlns="http://www.w3.org/2000/svg">
<path fill-rule="evenodd" clip-rule="evenodd" d="M44.9094 28.364H29.5458C28.8931 28.364 28.364 28.8931 28.364 29.5458V46.0913C28.364 46.744 28.8931 47.2731 29.5458 47.2731H44.9094C46.2148 47.2731 47.2731 46.2148 47.2731 44.9094V30.7276C47.2731 29.4222 46.2148 28.364 44.9094 28.364ZM23.6367 23.6367V52.0004H44.9094C48.8256 52.0004 52.0004 48.8256 52.0004 44.9094V30.7276C52.0004 26.8114 48.8256 23.6367 44.9094 23.6367H23.6367Z" fill="#000000"/>
<path d="M35.4551 23.6367H40.1824V30.7276C40.1824 32.033 39.1241 33.0913 37.8187 33.0913V33.0913C36.5133 33.0913 35.4551 32.033 35.4551 30.7276V23.6367Z" fill="#000000"/>
<path fill-rule="evenodd" clip-rule="evenodd" d="M23.6364 29.5458C23.6364 28.8931 23.1072 28.364 22.4545 28.364H7.09091C5.78551 28.364 4.72727 29.4222 4.72727 30.7276V44.9094C4.72727 46.2148 5.78551 47.2731 7.09091 47.2731H22.4545C23.1072 47.2731 23.6364 46.744 23.6364 46.0913V29.5458ZM7.09091 23.6367C3.17471 23.6367 0 26.8114 0 30.7276V44.9094C0 48.8256 3.17471 52.0004 7.09091 52.0004H28.3636V23.6367H7.09091Z" fill="#000000"/>
<path d="M11.8184 23.6367H16.5456V30.7276C16.5456 32.033 15.4874 33.0913 14.182 33.0913V33.0913C12.8766 33.0913 11.8184 32.033 11.8184 30.7276V23.6367Z" fill="#000000"/>
<path fill-rule="evenodd" clip-rule="evenodd" d="M33.0911 4.72727H18.9093C17.6039 4.72727 16.5456 5.78551 16.5456 7.09091V23.6364H35.4547V7.09091C35.4547 5.78551 34.3965 4.72727 33.0911 4.72727ZM18.9093 0C14.9931 0 11.8184 3.17471 11.8184 7.09091V28.3636H40.182V7.09091C40.182 3.17471 37.0073 0 33.0911 0H18.9093Z" fill="#000000"/>
<path d="M23.6367 0H28.364V7.09091C28.364 8.39631 27.3058 9.45455 26.0004 9.45455V9.45455C24.695 9.45455 23.6367 8.39631 23.6367 7.09091V0Z" fill="#000000"/>
</svg>
