<svg width="43" height="52" viewBox="0 0 43 52" fill="none" xmlns="http://www.w3.org/2000/svg">
<path fill-rule="evenodd" clip-rule="evenodd" d="M21.2727 28.364C12.1349 28.364 4.72727 35.7716 4.72727 44.9094V49.6367C4.72727 50.9421 3.66904 52.0004 2.36364 52.0004C1.05824 52.0004 0 50.9421 0 49.6367V44.9094C0 33.1608 9.52412 23.6367 21.2727 23.6367C33.0213 23.6367 42.5455 33.1608 42.5455 44.9094V49.6367C42.5455 50.9421 41.4872 52.0004 40.1818 52.0004C38.8764 52.0004 37.8182 50.9421 37.8182 49.6367V44.9094C37.8182 35.7716 30.4105 28.364 21.2727 28.364Z" fill="#000000"/>
<path fill-rule="evenodd" clip-rule="evenodd" d="M21.2736 23.6364C26.4952 23.6364 30.7282 19.4034 30.7282 14.1818C30.7282 8.96022 26.4952 4.72727 21.2736 4.72727C16.052 4.72727 11.8191 8.96022 11.8191 14.1818C11.8191 19.4034 16.052 23.6364 21.2736 23.6364ZM21.2736 28.3636C29.106 28.3636 35.4554 22.0142 35.4554 14.1818C35.4554 6.34942 29.106 0 21.2736 0C13.4412 0 7.0918 6.34942 7.0918 14.1818C7.0918 22.0142 13.4412 28.3636 21.2736 28.3636Z" fill="#000000"/>
</svg>
